<svg xmlns="http://www.w3.org/2000/svg" viewBox="0 0 512 512" role="img" aria-label="Eltreko">
  <defs>
    <linearGradient id="eltrekoGreen" x1="70" y1="0" x2="430" y2="512" gradientUnits="userSpaceOnUse">
      <stop offset="0" stop-color="#93d22f"/>
      <stop offset="1" stop-color="#35a94d"/>
    </linearGradient>
  </defs>
  <rect width="512" height="512" rx="112" fill="#1d2c34"/>
  <g fill="url(#eltrekoGreen)" transform="translate(82 94)">
    <rect x="0" y="0" width="272" height="62" rx="31"/>
    <rect x="0" y="131" width="272" height="62" rx="31"/>
    <rect x="0" y="262" width="272" height="62" rx="31"/>
    <rect x="22" y="62" width="78" height="69" rx="34.5" fill="#3ea226"/>
    <rect x="22" y="193" width="78" height="69" rx="34.5" fill="#3ea226"/>
    <path d="M100 0h128a31 31 0 0 1 0 62H66z" fill="#8bcf2f"/>
    <path d="M100 131h128a31 31 0 0 1 0 62H66z" fill="#8bcf2f"/>
    <path d="M100 262h128a31 31 0 0 1 0 62H66z" fill="#8bcf2f"/>
  </g>
</svg>
